<?xml version="1.0" encoding="UTF-8" standalone="no"?>
<!-- Created with Inkscape (http://www.inkscape.org/) -->

<svg
   version="1.1"
   id="svg554"
   width="1365.3333"
   height="1365.3333"
   viewBox="0 0 1365.3333 1365.3333"
   sodipodi:docname="munesco.svg"
   inkscape:version="1.2.2 (732a01da63, 2022-12-09)"
   xmlns:inkscape="http://www.inkscape.org/namespaces/inkscape"
   xmlns:sodipodi="http://sodipodi.sourceforge.net/DTD/sodipodi-0.dtd"
   xmlns="http://www.w3.org/2000/svg"
   xmlns:svg="http://www.w3.org/2000/svg">
  <defs
     id="defs558" />
  <sodipodi:namedview
     id="namedview556"
     pagecolor="#505050"
     bordercolor="#ffffff"
     borderopacity="1"
     inkscape:showpageshadow="0"
     inkscape:pageopacity="0"
     inkscape:pagecheckerboard="1"
     inkscape:deskcolor="#505050"
     showgrid="false"
     inkscape:zoom="0.41639201"
     inkscape:cx="253.36702"
     inkscape:cy="688.05355"
     inkscape:window-width="1920"
     inkscape:window-height="991"
     inkscape:window-x="-9"
     inkscape:window-y="-9"
     inkscape:window-maximized="1"
     inkscape:current-layer="g560" />
  <g
     inkscape:groupmode="layer"
     inkscape:label="Image"
     id="g560">
    <path
       style="fill:#FFFFFF;stroke-width:1.51575"
       d="m 73.333306,1118.4205 v -17.4313 H 682.66663 1291.9999 v 17.4313 17.4311 H 682.66663 73.333306 Z m 56.082934,-69.7269 v -17.4331 l 553.62932,0.3811 553.62934,0.3809 0.4286,17.0522 0.4285,17.0522 H 683.47414 129.41624 Z m 63.66168,-69.72013 v -17.4336 h 494.94349 494.94349 l -0.4286,17.0523 -0.4286,17.0522 -494.51487,0.3813 -494.51491,0.3812 z m 22.73631,-50.71783 c 0,-5.44387 -18.86509,-395.22292 -20.12247,-415.758 l -0.53365,-8.71559 h 10.25939 10.25936 l 0.75992,4.9262 c 0.41794,2.70942 2.98941,53.92079 5.71436,113.80291 2.72495,59.88223 5.41932,107.6285 5.9875,106.10289 0.56817,-1.52572 3.17107,-47.79185 5.78423,-102.81374 2.61314,-55.02189 5.15852,-104.98495 5.65639,-111.02904 l 0.90519,-10.98922 h 10.515 10.51501 l -0.94219,13.26285 c -0.79045,11.12668 -20.50596,410.68576 -20.50596,415.57839 0,1.03086 -4.47167,1.63303 -12.12604,1.63303 h -12.12604 z m 83.3665,-209.23643 V 503.78205 h 25.00995 25.00995 v 10.61028 10.61026 H 334.80097 320.4013 v 91.70319 91.70319 h 14.39967 14.39966 v 10.61024 10.61025 H 334.80097 320.4013 v 102.31343 102.31343 h -10.61028 -10.61029 z m 84.88226,0 V 503.78205 h 10.61028 10.61029 v 204.62692 204.62675 h 14.39966 14.39967 v 10.61036 10.61024 h -25.00995 -25.00995 z m 84.88225,0 V 503.78205 h 12.01696 12.01698 l 0.91643,7.95771 c 0.50403,4.37674 5.32979,64.23016 10.7239,133.00752 9.16637,116.87536 10.68297,134.13268 11.13829,126.7436 0.75048,-12.17859 19.98409,-253.5511 20.6981,-259.75112 l 0.91642,-7.95771 h 12.77486 12.77484 v 215.23716 215.23711 h -10.61028 -10.61028 l -0.1891,-101.17661 c -0.10402,-55.64714 -0.68264,-97.76617 -1.28587,-93.59781 -0.60323,4.16836 -4.4313,49.69773 -8.50684,101.17662 l -7.41007,93.5978 h -8.73525 c -5.92879,0 -8.76468,-0.60876 -8.82687,-1.89473 -0.0505,-1.042 -3.72395,-45.88939 -8.16343,-99.66079 l -8.07177,-97.76616 -0.17324,99.66078 -0.17322,99.6609 h -10.61027 -10.61029 z m 155.1399,213.67012 c -6.05428,-1.86665 -13.518,-10.30284 -15.67496,-17.71738 -3.72486,-12.8043 -4.47199,-50.29797 -4.51636,-226.64677 l -0.0464,-184.54313 h 10.54193 10.54196 l 0.51549,197.42701 c 0.40226,154.063 0.93683,198.69189 2.43373,203.18538 3.41831,10.26147 14.42812,11.4898 19.51726,2.17746 2.51833,-4.6082 2.70531,-16.91514 3.09693,-203.84701 l 0.41679,-198.94284 h 10.57243 10.57244 l -0.0468,193.63766 c -0.0281,115.9251 -0.63652,198.18226 -1.51619,204.96143 -1.82886,14.09379 -6.60845,24.04116 -13.42685,27.9443 -5.9078,3.38191 -25.19552,4.76428 -32.98137,2.36389 z M 712.98172,719.01921 V 503.78205 H 723.592 c 5.83565,0 10.65439,0.17052 10.70832,0.37893 0.054,0.20843 5.77677,50.85355 12.71746,112.5448 l 12.61943,112.16588 0.16644,-112.54478 0.16646,-112.54483 h 10.59996 10.59994 l 0.38928,215.23716 0.38926,215.23723 h -10.98923 c -7.22635,-1.2e-4 -10.98921,-0.59274 -10.98921,-1.73103 0,-3.63929 -24.37224,-223.43537 -24.93536,-224.87436 -0.32622,-0.83362 -0.64699,49.81153 -0.7128,112.54478 l -0.11967,114.06049 H 723.592 712.98172 Z m 109.13432,0 V 503.78205 h 25.00995 25.00995 v 10.61028 10.61026 h -14.39966 -14.39967 v 91.70319 91.70319 h 14.39967 14.39966 v 10.61024 10.61025 h -14.39966 -14.39967 v 91.70319 91.70307 h 14.39967 14.39966 v 10.61036 10.61024 H 847.12599 822.11604 Z M 926.3098,932.08989 c -7.41438,-2.64582 -9.816,-4.74711 -13.35596,-11.68601 -4.92937,-9.66237 -5.89437,-24.00694 -5.92552,-88.08209 l -0.03,-61.76696 h 10.52306 10.52307 l 0.4661,66.58433 c 0.455,64.98688 0.5429,66.68687 3.6613,70.86149 4.4431,5.94793 11.9031,5.94793 16.3461,-1.1e-4 3.1214,-4.17871 3.2055,-5.84119 3.6456,-72.06856 l 0.4504,-67.79118 -19.6807,-38.99608 c -10.82442,-21.44785 -21.08794,-42.75713 -22.80783,-47.35395 -2.98044,-7.9659 -3.12657,-11.39431 -3.11565,-73.09954 0.0122,-67.85109 0.86377,-79.82278 6.49179,-91.24198 4.15293,-8.42631 10.43533,-12.18808 22.12509,-13.24808 18.4802,-1.67571 30.6018,4.81283 35.2434,18.86531 1.3644,4.13085 2.0442,25.05929 2.4406,75.14251 l 0.5494,69.41694 -10.3156,-0.45018 -10.3156,-0.45007 -0.7579,-66.20554 c -0.7368,-64.36618 -0.8466,-66.32434 -3.953,-70.48259 -4.4431,-5.94771 -11.9031,-5.94759 -16.3461,2.3e-4 -3.122,4.1795 -3.2058,5.84232 -3.6609,72.70438 l -0.4658,68.42699 22.4442,44.46349 22.4443,44.46337 v 73.81732 c 0,66.82068 -0.2553,74.5483 -2.6931,81.53028 -3.2407,9.28131 -8.8403,14.92548 -17.0117,17.14728 -8.124,2.20894 -19.9411,1.98897 -26.91903,-0.501 z m 105.7382,-0.11141 c -7.6681,-2.71289 -12.0619,-7.77661 -15.4716,-17.8305 -2.5069,-7.3918 -2.7206,-20.23578 -3.1327,-188.30764 -0.2995,-122.17713 0.079,-183.79824 1.1729,-190.98508 3.2057,-21.06025 10.3464,-29.13357 27.1128,-30.6539 18.4895,-1.67656 30.6596,4.84398 35.2107,18.86535 1.2508,3.8538 2.0576,21.70534 2.4678,54.60854 l 0.6093,48.88309 h -10.6217 -10.6217 l -0.4791,-46.12244 c -0.4585,-44.15416 -0.6152,-46.30502 -3.6739,-50.3988 -4.4442,-5.94817 -11.904,-5.9468 -16.3462,0 l -3.1951,4.27954 V 719.01637 903.7161 l 3.1951,4.27955 c 4.4422,5.94975 11.902,5.95123 16.3462,0 3.0587,-4.0939 3.2154,-6.24476 3.6739,-50.39892 l 0.4791,-46.12232 h 10.6217 10.6217 l -0.6093,48.88308 c -0.4102,32.9032 -1.217,50.75474 -2.4678,54.60854 -2.6088,8.03695 -9.5945,15.41568 -16.5748,17.50697 -7.9121,2.37049 -20.8483,2.14187 -28.3173,-0.50065 z m 106.1028,0 c -7.668,-2.71289 -12.0618,-7.77661 -15.4716,-17.8305 -2.5069,-7.3918 -2.7205,-20.23578 -3.1326,-188.30764 -0.2996,-122.17713 0.078,-183.79824 1.1727,-190.98508 2.0564,-13.50912 6.9052,-23.38233 13.2717,-27.02378 6.4137,-3.66841 20.9913,-4.93822 30.2173,-2.63214 9.2554,2.31342 14.8273,7.62805 18.2379,17.3957 2.5245,7.23027 2.693,19.52209 2.693,196.4244 0,176.9022 -0.1685,189.19402 -2.693,196.42428 -3.2408,9.28142 -8.8404,14.9256 -17.0118,17.14739 -8.2442,2.24158 -19.9595,1.97852 -27.2836,-0.61263 z m 22.5865,-23.97988 3.1814,-4.27943 V 719.01944 534.31971 l -3.1952,-4.27954 c -4.4432,-5.95112 -11.9025,-5.95135 -16.3461,-5.7e-4 l -3.1951,4.27897 -0.4651,176.09586 c -0.2558,96.85273 -0.034,180.33231 0.4932,185.51028 1.2112,11.89757 5.111,17.48127 11.7445,16.81532 2.939,-0.295 5.7502,-2.00773 7.7824,-4.74143 z M 193.07792,468.16182 v -17.43119 h 494.89385 494.89373 v 17.43119 17.43117 H 687.97177 193.07792 Z M 307.56475,410.0847 c 0.80761,-0.71123 86.64397,-25.70076 190.74748,-55.53226 l 189.27907,-54.23911 11.5584,3.32858 c 6.35711,1.83073 88.97554,25.83513 183.59653,53.34312 94.62102,27.50799 173.92807,50.39287 176.23797,50.85529 11.0334,2.20873 1.4594,2.69006 -45.6475,2.29486 l -51.01335,-0.42798 -137.83201,-37.23146 -137.83199,-37.23147 -138.79321,36.48711 -138.7932,36.4871 -46.98839,0.86414 c -25.84362,0.47526 -49.01335,1.18612 -51.48829,1.57969 -2.55819,0.4068 -3.86628,0.15756 -3.03151,-0.57761 z M 190.04641,391.66493 v -18.14032 l 12.50498,-3.76493 c 6.87774,-2.07071 117.72068,-34.48036 246.31766,-72.02147 l 233.81268,-68.25653 239.10272,68.01814 c 131.50645,37.40999 243.36575,69.2055 248.57605,70.65672 l 9.4736,2.63859 v 18.90935 c 0,14.96977 -0.4138,18.75057 -1.9864,18.14716 -1.0923,-0.41921 -113.9628,-31.20131 -250.82305,-68.40467 L 678.18771,271.80452 435.5172,340.80489 c -133.46878,37.95021 -243.30058,69.00038 -244.07066,69.00038 -0.77836,0 -1.40013,-8.05591 -1.40013,-18.14034 z"
       id="path681" />
  </g>
</svg>
